<?xml version="1.0" encoding="UTF-8"?>
<svg width="24px" height="24px" viewBox="0 0 24 24" version="1.1" xmlns="http://www.w3.org/2000/svg" xmlns:xlink="http://www.w3.org/1999/xlink">
    <title>Icon/Wallet/Outline</title>
    <g id="Icon/Wallet/Outline" stroke="none" fill="none" fill-rule="nonzero">
        <rect id="Area" x="0" y="0" width="24" height="24"></rect>
        <g id="wallet-43" stroke-width="1" fill-rule="evenodd" transform="translate(1, 1)" stroke="#000000" stroke-linecap="round" stroke-linejoin="round">
            <path d="M20,11 L20,4 L2,4 C0.895,4 0,3.105 0,2 L0,19 C0,20.657 1.343,22 3,22 L20,22 L20,15" id="Path" stroke-width="2"></path>
            <path d="M16,1 L16,0 L2,0 C0.895,0 0,0.895 0,2 L0,2 C0,3.105 0.895,4 2,4" id="Path" stroke-width="2"></path>
            <path d="M22,15 L17,15 C15.895,15 15,14.105 15,13 L15,13 C15,11.895 15.895,11 17,11 L22,11 L22,15 Z" id="Path" stroke-width="2"></path>
        </g>
    </g>
</svg>